<svg xmlns="http://www.w3.org/2000/svg" viewBox="0 0 64 64">
  <defs>
    <style>
      .a {
        fill: #1f2937
      }

      @media (prefers-color-scheme: dark) {
        .a {
          fill: #e5e7eb
        }
      }
    </style>
  </defs>
  <g class="a">
    <!-- Antlers: thick stems with three tines each (reads well at 16–32px) -->
    <!-- Left antler stem (attached) -->
    <rect x="10" y="8" width="6" height="18" rx="3" />
    <!-- Connector to head -->
    <rect x="16" y="16" width="4" height="8" rx="2" />
    <!-- Left tines -->
    <rect x="4" y="8" width="8" height="4" rx="2" />
    <rect x="4" y="13" width="8" height="4" rx="2" />
    <rect x="4" y="18" width="8" height="4" rx="2" />

    <!-- Right antler stem (attached) -->
    <rect x="48" y="8" width="6" height="18" rx="3" />
    <!-- Connector to head -->
    <rect x="44" y="16" width="4" height="8" rx="2" />
    <!-- Right tines -->
    <rect x="52" y="8" width="8" height="4" rx="2" />
    <rect x="52" y="13" width="8" height="4" rx="2" />
    <rect x="52" y="18" width="8" height="4" rx="2" />

    <!-- Head -->
    <rect x="20" y="16" width="24" height="22" rx="12" />
    <!-- Cheeks / upper snout connectors -->
    <rect x="12" y="30" width="16" height="14" rx="8" />
    <rect x="36" y="30" width="16" height="14" rx="8" />
    <!-- Lower snout -->
    <rect x="26" y="36" width="12" height="10" rx="6" />
    <!-- Eyes -->
    <circle cx="26" cy="30" r="2" />
    <circle cx="38" cy="30" r="2" />
  </g>

</svg>